<?xml version="1.0" encoding="utf-8"?>
<!-- Generator: Adobe Illustrator 27.5.0, SVG Export Plug-In . SVG Version: 6.00 Build 0)  -->
<svg version="1.1" id="Layer_1" xmlns="http://www.w3.org/2000/svg" xmlns:xlink="http://www.w3.org/1999/xlink" x="0px" y="0px"
	 width="1010px" height="1010px" viewBox="0 0 1010 1010" style="enable-background:new 0 0 1010 1010;" xml:space="preserve">
<g>
	<g>
		<g>
			<circle cx="1004.9" cy="1004.9" r="4.9"/>
		</g>
		<g>
			<circle cx="904.9" cy="1004.9" r="4.9"/>
		</g>
		<g>
			<circle cx="804.9" cy="1004.9" r="4.9"/>
		</g>
		<g>
			<circle cx="704.9" cy="1004.9" r="4.9"/>
		</g>
		<g>
			<circle cx="604.9" cy="1004.9" r="4.9"/>
		</g>
		<g>
			<circle cx="504.9" cy="1004.9" r="4.9"/>
		</g>
		<g>
			<circle cx="404.9" cy="1004.9" r="4.9"/>
		</g>
		<g>
			<circle cx="304.9" cy="1004.9" r="4.9"/>
		</g>
		<g>
			<circle cx="204.9" cy="1004.9" r="4.9"/>
		</g>
		<g>
			<circle cx="104.9" cy="1004.9" r="4.9"/>
		</g>
		<g>
			<circle cx="4.9" cy="1004.9" r="4.9"/>
		</g>
	</g>
	<g>
		<g>
			<circle cx="1004.9" cy="904.9" r="4.9"/>
		</g>
		<g>
			<circle cx="904.9" cy="904.9" r="4.9"/>
		</g>
		<g>
			<circle cx="804.9" cy="904.9" r="4.9"/>
		</g>
		<g>
			<circle cx="704.9" cy="904.9" r="4.9"/>
		</g>
		<g>
			<circle cx="604.9" cy="904.9" r="4.9"/>
		</g>
		<g>
			<circle cx="504.9" cy="904.9" r="4.9"/>
		</g>
		<g>
			<circle cx="404.9" cy="904.9" r="4.9"/>
		</g>
		<g>
			<circle cx="304.9" cy="904.9" r="4.9"/>
		</g>
		<g>
			<circle cx="204.9" cy="904.9" r="4.9"/>
		</g>
		<g>
			<circle cx="104.9" cy="904.9" r="4.9"/>
		</g>
		<g>
			<circle cx="4.9" cy="904.9" r="4.9"/>
		</g>
	</g>
	<g>
		<g>
			<circle cx="1004.9" cy="804.9" r="4.9"/>
		</g>
		<g>
			<circle cx="904.9" cy="804.9" r="4.9"/>
		</g>
		<g>
			<circle cx="804.9" cy="804.9" r="4.9"/>
		</g>
		<g>
			<circle cx="704.9" cy="804.9" r="4.9"/>
		</g>
		<g>
			<circle cx="604.9" cy="804.9" r="4.9"/>
		</g>
		<g>
			<circle cx="504.9" cy="804.9" r="4.9"/>
		</g>
		<g>
			<circle cx="404.9" cy="804.9" r="4.9"/>
		</g>
		<g>
			<circle cx="304.9" cy="804.9" r="4.9"/>
		</g>
		<g>
			<circle cx="204.9" cy="804.9" r="4.9"/>
		</g>
		<g>
			<circle cx="104.9" cy="804.9" r="4.9"/>
		</g>
		<g>
			<circle cx="4.9" cy="804.9" r="4.9"/>
		</g>
	</g>
	<g>
		<g>
			<circle cx="1004.9" cy="704.9" r="4.9"/>
		</g>
		<g>
			<circle cx="904.9" cy="704.9" r="4.9"/>
		</g>
		<g>
			<circle cx="804.9" cy="704.9" r="4.9"/>
		</g>
		<g>
			<circle cx="704.9" cy="704.9" r="4.9"/>
		</g>
		<g>
			<circle cx="604.9" cy="704.9" r="4.9"/>
		</g>
		<g>
			<circle cx="504.9" cy="704.9" r="4.9"/>
		</g>
		<g>
			<circle cx="404.9" cy="704.9" r="4.9"/>
		</g>
		<g>
			<circle cx="304.9" cy="704.9" r="4.9"/>
		</g>
		<g>
			<circle cx="204.9" cy="704.9" r="4.9"/>
		</g>
		<g>
			<circle cx="104.9" cy="704.9" r="4.9"/>
		</g>
		<g>
			<circle cx="4.9" cy="704.9" r="4.9"/>
		</g>
	</g>
	<g>
		<g>
			<circle cx="1004.9" cy="604.9" r="4.9"/>
		</g>
		<g>
			<circle cx="904.9" cy="604.9" r="4.9"/>
		</g>
		<g>
			<circle cx="804.9" cy="604.9" r="4.9"/>
		</g>
		<g>
			<circle cx="704.9" cy="604.9" r="4.9"/>
		</g>
		<g>
			<circle cx="604.9" cy="604.9" r="4.9"/>
		</g>
		<g>
			<circle cx="504.9" cy="604.9" r="4.9"/>
		</g>
		<g>
			<circle cx="404.9" cy="604.9" r="4.9"/>
		</g>
		<g>
			<circle cx="304.9" cy="604.9" r="4.9"/>
		</g>
		<g>
			<circle cx="204.9" cy="604.9" r="4.9"/>
		</g>
		<g>
			<circle cx="104.9" cy="604.9" r="4.9"/>
		</g>
		<g>
			<circle cx="4.9" cy="604.9" r="4.9"/>
		</g>
	</g>
	<g>
		<g>
			<circle cx="1004.9" cy="504.9" r="4.9"/>
		</g>
		<g>
			<circle cx="904.9" cy="504.9" r="4.9"/>
		</g>
		<g>
			<circle cx="804.9" cy="504.9" r="4.9"/>
		</g>
		<g>
			<circle cx="704.9" cy="504.9" r="4.9"/>
		</g>
		<g>
			<circle cx="604.9" cy="504.9" r="4.9"/>
		</g>
		<g>
			<circle cx="504.9" cy="504.9" r="4.9"/>
		</g>
		<g>
			<circle cx="404.9" cy="504.9" r="4.9"/>
		</g>
		<g>
			<circle cx="304.9" cy="504.9" r="4.9"/>
		</g>
		<g>
			<circle cx="204.9" cy="504.9" r="4.9"/>
		</g>
		<g>
			<circle cx="104.9" cy="504.9" r="4.9"/>
		</g>
		<g>
			<circle cx="4.9" cy="504.9" r="4.9"/>
		</g>
	</g>
	<g>
		<g>
			<circle cx="1004.9" cy="404.9" r="4.9"/>
		</g>
		<g>
			<circle cx="904.9" cy="404.9" r="4.9"/>
		</g>
		<g>
			<circle cx="804.9" cy="404.9" r="4.9"/>
		</g>
		<g>
			<circle cx="704.9" cy="404.9" r="4.9"/>
		</g>
		<g>
			<circle cx="604.9" cy="404.9" r="4.9"/>
		</g>
		<g>
			<circle cx="504.9" cy="404.9" r="4.9"/>
		</g>
		<g>
			<circle cx="404.9" cy="404.9" r="4.9"/>
		</g>
		<g>
			<circle cx="304.9" cy="404.9" r="4.9"/>
		</g>
		<g>
			<circle cx="204.9" cy="404.9" r="4.9"/>
		</g>
		<g>
			<circle cx="104.9" cy="404.9" r="4.9"/>
		</g>
		<g>
			<circle cx="4.9" cy="404.9" r="4.9"/>
		</g>
	</g>
	<g>
		<g>
			<circle cx="1004.9" cy="304.9" r="4.9"/>
		</g>
		<g>
			<circle cx="904.9" cy="304.9" r="4.9"/>
		</g>
		<g>
			<circle cx="804.9" cy="304.9" r="4.9"/>
		</g>
		<g>
			<circle cx="704.9" cy="304.9" r="4.9"/>
		</g>
		<g>
			<circle cx="604.9" cy="304.9" r="4.9"/>
		</g>
		<g>
			<circle cx="504.9" cy="304.9" r="4.9"/>
		</g>
		<g>
			<circle cx="404.9" cy="304.9" r="4.9"/>
		</g>
		<g>
			<circle cx="304.9" cy="304.9" r="4.9"/>
		</g>
		<g>
			<circle cx="204.9" cy="304.9" r="4.9"/>
		</g>
		<g>
			<circle cx="104.9" cy="304.9" r="4.9"/>
		</g>
		<g>
			<circle cx="4.9" cy="304.9" r="4.9"/>
		</g>
	</g>
	<g>
		<g>
			<circle cx="1004.9" cy="204.9" r="4.9"/>
		</g>
		<g>
			<circle cx="904.9" cy="204.9" r="4.9"/>
		</g>
		<g>
			<circle cx="804.9" cy="204.9" r="4.9"/>
		</g>
		<g>
			<circle cx="704.9" cy="204.9" r="4.9"/>
		</g>
		<g>
			<circle cx="604.9" cy="204.9" r="4.9"/>
		</g>
		<g>
			<circle cx="504.9" cy="204.9" r="4.9"/>
		</g>
		<g>
			<circle cx="404.9" cy="204.9" r="4.9"/>
		</g>
		<g>
			<circle cx="304.9" cy="204.9" r="4.9"/>
		</g>
		<g>
			<circle cx="204.9" cy="204.9" r="4.9"/>
		</g>
		<g>
			<circle cx="104.9" cy="204.9" r="4.9"/>
		</g>
		<g>
			<circle cx="4.9" cy="204.9" r="4.9"/>
		</g>
	</g>
	<g>
		<g>
			<circle cx="1004.9" cy="104.9" r="4.9"/>
		</g>
		<g>
			<circle cx="904.9" cy="104.9" r="4.9"/>
		</g>
		<g>
			<circle cx="804.9" cy="104.9" r="4.9"/>
		</g>
		<g>
			<circle cx="704.9" cy="104.9" r="4.9"/>
		</g>
		<g>
			<circle cx="604.9" cy="104.9" r="4.9"/>
		</g>
		<g>
			<circle cx="504.9" cy="104.9" r="4.9"/>
		</g>
		<g>
			<circle cx="404.9" cy="104.9" r="4.9"/>
		</g>
		<g>
			<circle cx="304.9" cy="104.9" r="4.9"/>
		</g>
		<g>
			<circle cx="204.9" cy="104.9" r="4.9"/>
		</g>
		<g>
			<circle cx="104.9" cy="104.9" r="4.9"/>
		</g>
		<g>
			<circle cx="4.9" cy="104.9" r="4.9"/>
		</g>
	</g>
	<g>
		<g>
			<circle cx="1004.9" cy="4.9" r="4.9"/>
		</g>
		<g>
			<circle cx="904.9" cy="4.9" r="4.9"/>
		</g>
		<g>
			<circle cx="804.9" cy="4.9" r="4.9"/>
		</g>
		<g>
			<circle cx="704.9" cy="4.9" r="4.9"/>
		</g>
		<g>
			<circle cx="604.9" cy="4.9" r="4.9"/>
		</g>
		<g>
			<circle cx="504.9" cy="4.9" r="4.9"/>
		</g>
		<g>
			<circle cx="404.9" cy="4.9" r="4.9"/>
		</g>
		<g>
			<circle cx="304.9" cy="4.9" r="4.9"/>
		</g>
		<g>
			<circle cx="204.9" cy="4.9" r="4.9"/>
		</g>
		<g>
			<circle cx="104.9" cy="4.9" r="4.9"/>
		</g>
		<g>
			<circle cx="4.9" cy="4.9" r="4.9"/>
		</g>
	</g>
</g>
</svg>
